<svg xmlns="http://www.w3.org/2000/svg" viewBox="0 0 726.89 177.84"><defs><style>.cls-1{fill:#fff;}.cls-2{fill:none;stroke:#fff;stroke-miterlimit:10;}</style></defs><g id="Layer_2" data-name="Layer 2"><g id="Capa_1" data-name="Capa 1"><path class="cls-1" d="M423.73,45.4V0h15.14V45.4Zm15.14,30.27a14.6,14.6,0,0,1-10.76-4.38,14.86,14.86,0,0,1-4.38-10.76h90.8A14.4,14.4,0,0,1,510,71.29a14.73,14.73,0,0,1-10.64,4.38ZM499.4,45.4V0h15.13V45.4Z"/><path class="cls-1" d="M37.83,75.67V15.13H15.13A14.66,14.66,0,0,1,4.37,10.76,14.91,14.91,0,0,1,0,0H90.8a14.45,14.45,0,0,1-4.49,10.76,14.78,14.78,0,0,1-10.64,4.37H53V75.67Z"/><path class="cls-1" d="M121.07,15.13a14.63,14.63,0,0,1-10.76-4.37A14.87,14.87,0,0,1,105.93,0h90.8a14.41,14.41,0,0,1-4.49,10.76,14.76,14.76,0,0,1-10.64,4.37ZM105.93,75.67V30.26h90.8V75.67H181.6V45.4H121.07V75.67Z"/><path class="cls-1" d="M211.87,45.4V0H227V45.4ZM227,75.67a14.62,14.62,0,0,1-10.76-4.38,14.89,14.89,0,0,1-4.37-10.76h90.8a14.4,14.4,0,0,1-4.5,10.76,14.72,14.72,0,0,1-10.64,4.38ZM287.53,45.4V0h15.14V45.4Z"/><path class="cls-1" d="M317.8,75.67V30.26h68.1a7.51,7.51,0,0,0,5.32-2.12,7.41,7.41,0,0,0,2.25-5.44V15.13H332.93a14.66,14.66,0,0,1-10.76-4.37A14.91,14.91,0,0,1,317.8,0h90.8V30.26A14.47,14.47,0,0,1,404.11,41a14.78,14.78,0,0,1-10.64,4.37H378.33L408.6,75.67H385.9L355.63,45.4h-22.7V75.67Z"/><path class="cls-1" d="M529.67,75.67A14.53,14.53,0,0,1,534,65a14.7,14.7,0,0,1,10.76-4.49h60.53V45.4H529.67V0h90.8A14.42,14.42,0,0,1,616,10.76a14.75,14.75,0,0,1-10.64,4.37H544.8V30.26h75.67V75.67Z"/><path class="cls-2" d="M121.07,116.81a14.63,14.63,0,0,1-10.76-4.37,14.87,14.87,0,0,1-4.38-10.76h90.8a14.41,14.41,0,0,1-4.49,10.76,14.76,14.76,0,0,1-10.64,4.37Zm-15.14,60.53v-45.4h90.8v45.4H181.6V147.08H121.07v30.26Z"/><path class="cls-2" d="M211.87,177.34v-45.4H280a7.48,7.48,0,0,0,5.31-2.12,7.41,7.41,0,0,0,2.25-5.44v-7.57H227a14.63,14.63,0,0,1-10.76-4.37,14.87,14.87,0,0,1-4.37-10.76h90.79v30.26a14.4,14.4,0,0,1-4.49,10.76,14.72,14.72,0,0,1-10.64,4.38H272.4l30.26,30.26H280L249.7,147.08H227v30.26Z"/><path class="cls-2" d="M317.8,116.81V101.68h90.8a14.42,14.42,0,0,1-4.5,10.76,14.75,14.75,0,0,1-10.64,4.37Zm15.13,60.53A14.62,14.62,0,0,1,322.17,173a14.85,14.85,0,0,1-4.37-10.76V131.94h15.13v22.71a7.29,7.29,0,0,0,7.57,7.56h68.1A14.4,14.4,0,0,1,404.1,173a14.71,14.71,0,0,1-10.64,4.37Z"/><path class="cls-2" d="M438.86,116.81a14.62,14.62,0,0,1-10.75-4.37,14.87,14.87,0,0,1-4.38-10.76h90.8A14.45,14.45,0,0,1,510,112.44a14.78,14.78,0,0,1-10.64,4.37Zm-15.13,60.53v-45.4h90.8v45.4H499.4V147.08H438.86v30.26Z"/><path class="cls-2" d="M529.66,177.34v-45.4H544.8v30.27h53a7.47,7.47,0,0,0,5.32-2.13,7.38,7.38,0,0,0,2.25-5.43V116.81H544.8A14.63,14.63,0,0,1,534,112.44a14.87,14.87,0,0,1-4.38-10.76h90.8v60.53A14.43,14.43,0,0,1,616,173a14.72,14.72,0,0,1-10.64,4.37Z"/><path class="cls-2" d="M650.73,116.81A14.63,14.63,0,0,1,640,112.44a14.87,14.87,0,0,1-4.38-10.76h90.8a14.41,14.41,0,0,1-4.49,10.76,14.76,14.76,0,0,1-10.64,4.37Zm0,30.27A14.6,14.6,0,0,1,640,142.7a14.86,14.86,0,0,1-4.38-10.76h90.8a14.4,14.4,0,0,1-4.49,10.76,14.73,14.73,0,0,1-10.64,4.38Zm0,30.26A14.59,14.59,0,0,1,640,173a14.86,14.86,0,0,1-4.38-10.76h90.8A14.4,14.4,0,0,1,721.9,173a14.72,14.72,0,0,1-10.64,4.37Z"/></g></g></svg>