<?xml version="1.0" encoding="utf-8"?>
<!-- Generator: Adobe Illustrator 24.1.1, SVG Export Plug-In . SVG Version: 6.00 Build 0)  -->
<svg version="1.1" id="Capa_1" xmlns="http://www.w3.org/2000/svg" xmlns:xlink="http://www.w3.org/1999/xlink" x="0px" y="0px"
	 viewBox="0 0 676.5 741.9" style="enable-background:new 0 0 676.5 741.9;" xml:space="preserve">
<style type="text/css">
	.st0{fill:#4EC7E5;}
	.st1{stroke:#000000;stroke-miterlimit:12;}
</style>
<path class="st0" d="M582.6,741.9H93.9C42.1,741.9,0,699.9,0,648V94.1C0,42.3,42.1,0.2,93.9,0.2h488.6c51.9,0,93.9,42.1,93.9,93.9
	V648C676.5,699.9,634.5,741.9,582.6,741.9z"/>
<polyline class="st1" points="345.5,535.6 295,362.4 114,236.2 74.8,63.5 85.1,264.7 216,389.3 345.2,682.1 345.2,682.1 
	475.4,388.8 606.7,263.8 617.8,62.5 578,235.4 396.5,362.2 345.4,535.6 "/>
</svg>
