<?xml version="1.0" encoding="utf-8"?>
<!-- Generator: Adobe Illustrator 24.1.1, SVG Export Plug-In . SVG Version: 6.00 Build 0)  -->
<svg version="1.1" id="Capa_1" xmlns="http://www.w3.org/2000/svg" xmlns:xlink="http://www.w3.org/1999/xlink" x="0px" y="0px"
	 viewBox="0 0 640.9 593.6" style="enable-background:new 0 0 640.9 593.6;" xml:space="preserve">
<style type="text/css">
	.st0{stroke:#000000;stroke-miterlimit:12;}
</style>
<path d="M53.2,565.7v-26.5h-9.9c-1.9,0-3.4-0.6-4.7-1.9c-1.3-1.3-1.9-2.9-1.9-4.7h39.7c0,1.9-0.7,3.4-2,4.7
	c-1.3,1.3-2.9,1.9-4.7,1.9h-9.9v26.5H53.2z"/>
<path d="M87,539.2c-1.9,0-3.4-0.6-4.7-1.9c-1.3-1.3-1.9-2.9-1.9-4.7h39.7c0,1.9-0.7,3.4-2,4.7c-1.3,1.3-2.9,1.9-4.7,1.9H87z
	 M80.4,565.7v-19.9h39.7v19.9h-6.6v-13.2H87v13.2H80.4z"/>
<path d="M126.7,552.4v-19.9h6.6v19.9H126.7z M133.3,565.7c-1.9,0-3.4-0.6-4.7-1.9c-1.3-1.3-1.9-2.9-1.9-4.7h39.7
	c0,1.9-0.7,3.4-2,4.7c-1.3,1.3-2.9,1.9-4.7,1.9H133.3z M159.8,552.4v-19.9h6.6v19.9H159.8z"/>
<path d="M174.4,565.7v-19.9h29.8c0.9,0,1.7-0.3,2.3-0.9c0.7-0.7,1-1.4,1-2.4v-3.3H181c-1.9,0-3.4-0.6-4.7-1.9
	c-1.3-1.3-1.9-2.9-1.9-4.7h39.7v13.2c0,1.9-0.7,3.4-2,4.7c-1.3,1.3-2.9,1.9-4.7,1.9h-6.6l13.2,13.2h-9.9l-13.2-13.2H181v13.2H174.4z
	"/>
<path d="M221.4,552.4v-19.9h6.6v19.9H221.4z M228,565.7c-1.9,0-3.4-0.6-4.7-1.9c-1.3-1.3-1.9-2.9-1.9-4.7h39.7c0,1.9-0.7,3.4-2,4.7
	c-1.3,1.3-2.9,1.9-4.7,1.9H228z M254.5,552.4v-19.9h6.6v19.9H254.5z"/>
<path d="M268.4,565.7c0-1.8,0.6-3.4,1.9-4.7c1.3-1.3,2.9-2,4.7-2h26.5v-6.6h-33.1v-19.9h39.7c0,1.9-0.7,3.4-2,4.7
	c-1.3,1.3-2.9,1.9-4.7,1.9H275v6.6h33.1v19.9H268.4z"/>
<path d="M341.2,539.2c-1.9,0-3.4-0.6-4.7-1.9c-1.3-1.3-1.9-2.9-1.9-4.7h39.7c0,1.9-0.7,3.4-2,4.7s-2.9,1.9-4.7,1.9H341.2z
	 M334.6,565.7v-19.9h39.7v19.9h-6.6v-13.2h-26.5v13.2H334.6z"/>
<path d="M380.9,565.7v-19.9h29.8c0.9,0,1.7-0.3,2.3-0.9c0.7-0.7,1-1.4,1-2.4v-3.3h-26.5c-1.9,0-3.4-0.6-4.7-1.9
	c-1.3-1.3-1.9-2.9-1.9-4.7h39.7v13.2c0,1.9-0.7,3.4-2,4.7c-1.3,1.3-2.9,1.9-4.7,1.9h-6.6l13.2,13.2h-9.9l-13.2-13.2h-9.9v13.2H380.9
	z"/>
<path d="M427.3,539.2v-6.6H467c0,1.9-0.7,3.4-2,4.7s-2.9,1.9-4.7,1.9H427.3z M433.9,565.7c-1.9,0-3.4-0.6-4.7-1.9
	c-1.3-1.3-1.9-2.9-1.9-4.7v-13.2h6.6v9.9c0,0.9,0.3,1.7,0.9,2.4c0.7,0.6,1.4,0.9,2.4,0.9H467c0,1.9-0.7,3.4-2,4.7
	c-1.3,1.3-2.9,1.9-4.7,1.9H433.9z"/>
<path d="M480.2,539.2c-1.9,0-3.4-0.6-4.7-1.9c-1.3-1.3-1.9-2.9-1.9-4.7h39.7c0,1.9-0.7,3.4-2,4.7s-2.9,1.9-4.7,1.9H480.2z
	 M473.6,565.7v-19.9h39.7v19.9h-6.6v-13.2h-26.5v13.2H473.6z"/>
<path d="M519.9,565.7v-19.9h6.6v13.2h23.2c0.9,0,1.7-0.3,2.3-0.9c0.7-0.7,1-1.4,1-2.4v-16.6h-26.5c-1.9,0-3.4-0.6-4.7-1.9
	c-1.3-1.3-1.9-2.9-1.9-4.7h39.7v26.5c0,1.9-0.7,3.4-2,4.7c-1.3,1.3-2.9,1.9-4.7,1.9H519.9z"/>
<path d="M572.9,539.2c-1.9,0-3.4-0.6-4.7-1.9c-1.3-1.3-1.9-2.9-1.9-4.7H606c0,1.9-0.7,3.4-2,4.7s-2.9,1.9-4.7,1.9H572.9z
	 M572.9,552.4c-1.9,0-3.4-0.6-4.7-1.9c-1.3-1.3-1.9-2.9-1.9-4.7H606c0,1.9-0.7,3.4-2,4.7c-1.3,1.3-2.9,1.9-4.7,1.9H572.9z
	 M572.9,565.7c-1.9,0-3.4-0.6-4.7-1.9c-1.3-1.3-1.9-2.9-1.9-4.7H606c0,1.9-0.7,3.4-2,4.7c-1.3,1.3-2.9,1.9-4.7,1.9H572.9z"/>
<polyline class="st0" points="340.9,368.9 304.6,244.5 174.7,154 146.5,30 154,174.4 247.9,263.8 340.7,474.1 340.7,474.1 
	434.2,263.5 528.4,173.8 536.3,29.3 507.8,153.4 377.5,244.4 340.8,368.9 "/>
</svg>
